<svg height="106" viewBox="0 0 107 106" width="107" xmlns="http://www.w3.org/2000/svg" xmlns:xlink="http://www.w3.org/1999/xlink"><linearGradient id="a" gradientUnits="userSpaceOnUse" x1="53.537555" x2="53.509503" y1="105.956414" y2="-.058682"><stop offset="0" stop-color="#007c77"/><stop offset="1" stop-color="#1ee5ce"/></linearGradient><g fill-rule="evenodd"><path d="m53 106c-29.271063 0-53-23.728935-53-53s23.728937-53 53-53c29.271065 0 53 23.728935 53 53s-23.728935 53-53 53zm-30-22h31c2.139725 0 3.875-1.735275 3.875-3.875v-16.275391c-1.549999 1.162499-3.875008 3.100396-11.625 8.525391-1.549999 1.162506-4.650002 3.875-7.75 3.875s-6.200001-2.712494-7.75-3.875c-7.749992-5.424995-10.075001-7.362892-11.625-8.525391v16.275391c0 2.139725 1.735275 3.875 3.875 3.875zm15.5-11.625c1.937496 0 4.263283-2.325394 5.425781-2.712891 11.237492-8.137497 10.849221-8.137897 13.949219-10.46289v-2.324219c0-2.139725-1.735279-3.875-3.875-3.875h-31c-2.139725 0-3.875 1.735275-3.875 3.875v1.9375c3.099997 2.324997 2.711729 2.325401 13.949219 10.462891 1.162498.775001 3.488285 3.099609 5.425781 3.099609zm23.25 0h23.25c2.139725 0 3.875-1.735275 3.875-3.875v-23.25c0-2.139721-1.735275-3.875-3.875-3.875h-38.75c-2.139721 0-3.875 1.735279-3.875 3.875v3.875h11.625c4.021519 0 7.337032 3.078518 7.714844 7.001953l.035156-.027344zm11.625-15.5v-7.75h7.75v7.75zm-46.5-7.75h11.625v-3.875c0-4.273392 3.476604-7.75 7.75-7.75h27.125v-11.625c0-2.139725-1.735275-3.875-3.875-3.875h-38.75c-2.139725 0-3.875 1.735275-3.875 3.875z" fill="url(#a)" visibility="hidden"/><path d="m53 106c-29.271063 0-53-23.728935-53-53s23.728937-53 53-53c29.271065 0 53 23.728935 53 53s-23.728935 53-53 53zm-30-22h31c2.139725 0 3.875-1.735275 3.875-3.875v-16.275391c-1.549999 1.162499-3.875008 3.100396-11.625 8.525391-1.549999 1.162506-4.650002 3.875-7.75 3.875s-6.200001-2.712494-7.75-3.875c-7.749992-5.424995-10.075001-7.362892-11.625-8.525391v16.275391c0 2.139725 1.735275 3.875 3.875 3.875zm15.5-11.625c1.937496 0 4.263283-2.325394 5.425781-2.712891 11.237492-8.137497 10.849221-8.137897 13.949219-10.46289v-2.324219c0-2.139725-1.735279-3.875-3.875-3.875h-31c-2.139725 0-3.875 1.735275-3.875 3.875v1.9375c3.099997 2.324997 2.711729 2.325401 13.949219 10.462891 1.162498.775001 3.488285 3.099609 5.425781 3.099609zm23.25 0h23.25c2.139725 0 3.875-1.735275 3.875-3.875v-23.25c0-2.139721-1.735275-3.875-3.875-3.875h-38.75c-2.139721 0-3.875 1.735279-3.875 3.875v3.875h11.625c4.021519 0 7.337032 3.078518 7.714844 7.001953l.035156-.027344zm11.625-15.5v-7.75h7.75v7.75zm-46.5-7.75h11.625v-3.875c0-4.273392 3.476604-7.75 7.75-7.75h27.125v-11.625c0-2.139725-1.735275-3.875-3.875-3.875h-38.75c-2.139725 0-3.875 1.735275-3.875 3.875z"/></g></svg>