<svg height="106" viewBox="0 0 107 106" width="107" xmlns="http://www.w3.org/2000/svg"><path d="m97.534 106c-4.694 0-8.5-3.806-8.5-8.5s3.806-8.5 8.5-8.5c4.695 0 8.5 3.806 8.5 8.5s-3.805 8.5-8.5 8.5zm0-2.334c3.406 0 6.167-2.761 6.167-6.166s-2.761-6.166-6.167-6.166c-3.405 0-6.166 2.761-6.166 6.166s2.761 6.166 6.166 6.166zm-1.332-2.346v-2.65h2.497v2.65zm0-4.211v-2.65h2.497v2.65z"/><path d="m53 106c-29.271 0-53-23.729-53-53s23.729-53 53-53 53 23.729 53 53-23.729 53-53 53zm-30-22h31c2.14 0 3.875-1.735 3.875-3.875v-16.275c-1.55 1.162-3.875 3.1-11.625 8.525-1.55 1.163-4.65 3.875-7.75 3.875s-6.2-2.712-7.75-3.875c-7.75-5.425-10.075-7.363-11.625-8.525v16.275c0 2.14 1.735 3.875 3.875 3.875zm15.5-11.625c1.937 0 4.263-2.325 5.426-2.713 11.237-8.137 10.849-8.138 13.949-10.463v-2.324c0-2.14-1.735-3.875-3.875-3.875h-31c-2.14 0-3.875 1.735-3.875 3.875v1.938c3.1 2.324 2.712 2.325 13.949 10.462 1.163.775 3.489 3.1 5.426 3.1zm23.25 0h23.25c2.14 0 3.875-1.735 3.875-3.875v-23.25c0-2.14-1.735-3.875-3.875-3.875h-38.75c-2.14 0-3.875 1.735-3.875 3.875v3.875h11.625c4.022 0 7.337 3.079 7.715 7.002l.035-.027zm11.625-15.5v-7.75h7.75v7.75zm-46.5-7.75h11.625v-3.875c0-4.273 3.477-7.75 7.75-7.75h27.125v-11.625c0-2.14-1.735-3.875-3.875-3.875h-38.75c-2.14 0-3.875 1.735-3.875 3.875z"/></svg>